# xmcd
#
# Track frame offsets:
#	150
#	19457
#	38284
#	53735
#	68955
#	84079
#	94198
#	107607
#	120287
#	146589
#
# Disc length: 2172 seconds
#
# Revision: 0
# Processed by: cddbd v1.4PL0 Copyright (c) Steve Scherf et al.
# Submitted via: dBpowerAMP V4.0
#
DISCID=74087a0a
DTITLE=Bill Lyerly Band - Motel Room Blues
DYEAR=1900
DGENRE=Blues
TTITLE0=I Caught The Blues From You (w/ Lynda Little)
TTITLE1=Gimme All Your Lovin'
TTITLE2=I Can Find Love
TTITLE3=Crazy, Lonesome and Blue
TTITLE4=Bangin' In The Dunes (w/Griff
TTITLE5=Only Want To Be With You
TTITLE6=Widow And The Tax Man
TTITLE7=Trying To Drink You Off My Mind
TTITLE8=Motel Room Blues
TTITLE9=Highway of Pain
EXTD=Bill Lyerly Band  Motel Room Blues
EXTT0=
EXTT1=
EXTT2=
EXTT3=
EXTT4=
EXTT5=
EXTT6=
EXTT7=
EXTT8=
EXTT9=
PLAYORDER=
